<svg xmlns="http://www.w3.org/2000/svg" viewBox="0 0 512 389.57"><defs><style>.cls-1{fill:#fff;}</style></defs><title>terminal</title><g id="Layer_2" data-name="Layer 2"><g id="Layer_1-2" data-name="Layer 1"><path class="cls-1" d="M495.3,0H16.7A16.7,16.7,0,0,0,0,16.7V372.87a16.7,16.7,0,0,0,16.7,16.7H495.3a16.7,16.7,0,0,0,16.7-16.7V16.7A16.7,16.7,0,0,0,495.3,0ZM478.61,356.17H33.39v-223H478.61v223Zm0-256.35H33.39V33.39H478.61V99.82Z"/><path class="cls-1" d="M443.57,42a22.26,22.26,0,1,0,22.26,22.26A22.28,22.28,0,0,0,443.57,42Z"/><path class="cls-1" d="M382.93,42a22.26,22.26,0,1,0,22.26,22.26A22.28,22.28,0,0,0,382.93,42Z"/><path class="cls-1" d="M322.29,42a22.26,22.26,0,1,0,22.26,22.26A22.29,22.29,0,0,0,322.29,42Z"/><path class="cls-1" d="M235.45,232,180.8,185.47a16.7,16.7,0,1,0-21.64,25.43l39.71,33.79-39.71,33.79a16.7,16.7,0,1,0,21.64,25.43l54.65-46.5A16.7,16.7,0,0,0,235.45,232Z"/><path class="cls-1" d="M342,274.5H276.07a16.7,16.7,0,1,0,0,33.39H342a16.7,16.7,0,1,0,0-33.39Z"/></g></g></svg>